<svg width="53" height="60" viewBox="0 0 53 60" fill="none" xmlns="http://www.w3.org/2000/svg">
<path fill-rule="evenodd" clip-rule="evenodd" d="M6.51411 4.34274C5.3149 4.34274 4.34274 5.3149 4.34274 6.51411V48.494C4.34274 49.6932 5.3149 50.6653 6.51411 50.6653H20.2661C21.4653 50.6653 22.4375 51.6375 22.4375 52.8367C22.4375 54.0359 21.4653 55.0081 20.2661 55.0081H6.51411C2.91647 55.0081 0 52.0916 0 48.494V6.51411C0 2.91647 2.91647 0 6.51411 0H30.2653C32.2372 0 34.103 0.893218 35.3395 2.42923L44.8827 14.2836C45.8145 15.4411 46.3226 16.8825 46.3226 18.3685V35.4657C46.3226 36.6649 45.3504 37.6371 44.1512 37.6371C42.952 37.6371 41.9798 36.6649 41.9798 35.4657V18.3685C41.9798 17.8731 41.8105 17.3927 41.4999 17.0068L31.9567 5.15248C31.5445 4.64048 30.9226 4.34274 30.2653 4.34274H6.51411Z" fill="#EEEEEE"/>
<path fill-rule="evenodd" clip-rule="evenodd" d="M51.3961 42.5396C52.2863 43.3432 52.3564 44.7163 51.5528 45.6064L39.7912 58.6346C39.399 59.0691 38.848 59.3268 38.2631 59.3494C37.6781 59.3719 37.1089 59.1573 36.6844 58.7543L29.6275 52.054C28.7578 51.2283 28.7222 49.854 29.5479 48.9843C30.3736 48.1146 31.748 48.079 32.6176 48.9047L38.0598 54.0718L48.3294 42.6963C49.133 41.8062 50.506 41.736 51.3961 42.5396Z" fill="#EEEEEE"/>
</svg>
