<svg width="44" height="44" viewBox="0 0 44 44" fill="none" xmlns="http://www.w3.org/2000/svg">
<path d="M22 0C9.9 0 0 9.9 0 22C0 34.1 9.9 44 22 44C34.1 44 44 34.1 44 22C44 9.9 34.1 0 22 0ZM22 41C11.5 41 3 32.5 3 22C3 11.5 11.5 3 22 3C32.5 3 41 11.5 41 22C41 32.5 32.5 41 22 41Z" fill="#333233"/>
<path d="M22 7C13.7 7 7 13.7 7 22C7 30.3 13.7 37 22 37C30.3 37 37 30.3 37 22C37 13.7 30.3 7 22 7ZM22 34C15.4 34 10 28.6 10 22C10 15.4 15.4 10 22 10C28.6 10 34 15.4 34 22C34 28.6 28.6 34 22 34Z" fill="#333233"/>
<path d="M22 14C17.6 14 14 17.6 14 22C14 26.4 17.6 30 22 30C26.4 30 30 26.4 30 22C30 17.6 26.4 14 22 14ZM22 27C19.2 27 17 24.8 17 22C17 19.2 19.2 17 22 17C24.8 17 27 19.2 27 22C27 24.8 24.7 27 22 27Z" fill="#333233"/>
<path d="M22 23.5C22.8284 23.5 23.5 22.8284 23.5 22C23.5 21.1716 22.8284 20.5 22 20.5C21.1716 20.5 20.5 21.1716 20.5 22C20.5 22.8284 21.1716 23.5 22 23.5Z" fill="#333233"/>
</svg>
