<svg width="31" height="45" viewBox="0 0 31 45" fill="none" xmlns="http://www.w3.org/2000/svg">
<path d="M15.5996 8.5C14.5996 8.5 14.0996 9.29999 14.0996 10.4V16.6C14.0996 17.6 14.5996 18.5 15.5996 18.5C16.5996 18.5 17.0996 17.7 17.0996 16.6V10.4C17.0996 9.29999 16.5996 8.5 15.5996 8.5Z" fill="#EC008C"/>
<path d="M16.8 0H13.3C6.00002 0 0 5.99999 0 13.3V30.8C0 38.1 6.00002 44.1 13.3 44.1H16.8C24.1 44.1 30.1 38.1 30.1 30.8V13.3C30.1 5.89999 24.1 0 16.8 0ZM27.1 30.7C27.1 36.4 22.5 41 16.8 41H13.3C7.60002 41 3 36.4 3 30.7V13.2C3 7.49998 7.60002 2.89999 13.3 2.89999H16.8C22.5 2.89999 27.1 7.49998 27.1 13.2V30.7Z" fill="#EC008C"/>
</svg>
