<svg width="33" height="31" viewBox="0 0 33 31" fill="none" xmlns="http://www.w3.org/2000/svg">
<path d="M1.5 3H31.5C32.3 3 33 2.3 33 1.5C33 0.7 32.3 0 31.5 0H1.5C0.7 0 0 0.7 0 1.5C0 2.3 0.7 3 1.5 3Z" fill="#EC008C"/>
<path d="M1.5 10H20.5C21.3 10 22 9.3 22 8.5C22 7.7 21.3 7 20.5 7H1.5C0.7 7 0 7.7 0 8.5C0 9.3 0.7 10 1.5 10Z" fill="#EC008C"/>
<path d="M1.5 17H29.5C30.3 17 31 16.3 31 15.5C31 14.7 30.3 14 29.5 14H1.5C0.7 14 0 14.7 0 15.5C0 16.3 0.7 17 1.5 17Z" fill="#EC008C"/>
<path d="M1.5 24H26.5C27.3 24 28 23.3 28 22.5C28 21.7 27.3 21 26.5 21H1.5C0.7 21 0 21.7 0 22.5C0 23.3 0.7 24 1.5 24Z" fill="#EC008C"/>
<path d="M31.5 28H1.5C0.7 28 0 28.7 0 29.5C0 30.3 0.7 31 1.5 31H31.5C32.3 31 33 30.3 33 29.5C33 28.7 32.3 28 31.5 28Z" fill="#EC008C"/>
</svg>
