<svg width="36" height="44" viewBox="0 0 36 44" fill="none" xmlns="http://www.w3.org/2000/svg">
<path d="M32.7 0.0999756H9C8.4 0.0999756 7.69998 0.200024 7.19998 0.400024L6.89999 0.0999756L5.5 1.5C5.4 1.6 5.39999 1.59995 5.29999 1.69995L1.79999 5.19995C1.49999 5.39995 1.29998 5.60002 1.09998 5.90002L0 7L0.399994 7.09998C0.199994 7.69998 0 8.3 0 9V39C0 41.8 2.2 44 5 44H26C26.9 44 27.7 43.8 28.4 43.3L29.1 43.8999L32.7 39.6001C34.6 38.9001 35.9 37.1 35.9 35V3V0H32.7V0.0999756ZM32.8 3.09998V35.1001C32.8 35.7001 32.5 36.2 32.1 36.5L31.6 36.1001L30.8 37C30.8 37 30.8 37 30.7 37V7V4H27.7H23.7H13.7H7C7.4 3.4 8.09999 3 8.79999 3H32.8V3.09998ZM16.8 7.09998H20.8V16L18.5 14.1L16.8 15.7V7.09998ZM4.79999 41.1001C3.69999 41.1001 2.79999 40.2001 2.79999 39.1001V9.09998C2.79999 7.99998 3.69999 7.09998 4.79999 7.09998H13.8V22.5L18.6 18.1001L23.8 22.2V7.09998H27.8V39.1001C27.8 40.2001 26.9 41.1001 25.8 41.1001H4.79999Z" fill="#333233"/>
</svg>
