<svg width="63" height="56" viewBox="0 0 63 56" fill="none" xmlns="http://www.w3.org/2000/svg">
<path d="M60.0746 50.6655H2.17137C1.01331 50.6655 0 51.6788 0 52.8369C0 53.995 1.01331 55.0083 2.17137 55.0083H60.0746C61.2327 55.0083 62.246 53.995 62.246 52.8369C62.246 51.6788 61.2327 50.6655 60.0746 50.6655Z" fill="#EEEEEE"/>
<path d="M28.2275 47.77H34.0178C36.4787 47.77 38.3606 45.8881 38.3606 43.4273V27.5039C38.3606 25.043 36.4787 23.1611 34.0178 23.1611H28.2275C25.7666 23.1611 23.8848 25.043 23.8848 27.5039V43.4273C23.8848 45.8881 25.7666 47.77 28.2275 47.77ZM28.2275 27.5039H34.0178V43.4273H28.2275V27.5039Z" fill="#EEEEEE"/>
<path d="M45.5986 47.7703H51.3889C53.8498 47.7703 55.7317 45.8884 55.7317 43.4275V17.3711C55.7317 14.9102 53.8498 13.0283 51.3889 13.0283H45.5986C43.1377 13.0283 41.2559 14.9102 41.2559 17.3711V43.4275C41.2559 45.8884 43.1377 47.7703 45.5986 47.7703ZM45.5986 17.3711H51.3889V43.4275H45.5986V17.3711Z" fill="#EEEEEE"/>
<path d="M10.8564 47.7702H16.6467C19.1076 47.7702 20.9895 45.8883 20.9895 43.4274V4.34274C20.9895 1.88185 19.1076 0 16.6467 0H10.8564C8.39553 0 6.51367 1.88185 6.51367 4.34274V43.4274C6.51367 45.8883 8.39553 47.7702 10.8564 47.7702ZM10.8564 4.34274H16.6467V43.4274H10.8564V4.34274Z" fill="#EEEEEE"/>
</svg>
