<svg width="111" height="109" viewBox="0 0 111 109" fill="none" xmlns="http://www.w3.org/2000/svg">
<path fill-rule="evenodd" clip-rule="evenodd" d="M35.1157 18.9432C35.3031 18.7433 35.6171 18.7332 35.817 18.9206L38.7797 21.6987C38.9796 21.8862 38.9896 22.2002 38.8022 22.4C38.6148 22.5999 38.3008 22.61 38.1009 22.4226L35.1382 19.6445C34.9383 19.457 34.9282 19.143 35.1157 18.9432Z" fill="#314158"/>
<path fill-rule="evenodd" clip-rule="evenodd" d="M38.6893 18.8254C38.8892 19.0128 38.8993 19.3268 38.7119 19.5267L35.9318 22.4913C35.7444 22.6912 35.4304 22.7013 35.2305 22.5139C35.0306 22.3264 35.0205 22.0124 35.208 21.8126L37.988 18.8479C38.1755 18.648 38.4895 18.638 38.6893 18.8254Z" fill="#314158"/>
<path fill-rule="evenodd" clip-rule="evenodd" d="M38.5191 61.5724C38.7066 61.3726 39.0206 61.3626 39.2204 61.5501L42.1831 64.3302C42.3829 64.5177 42.3929 64.8317 42.2054 65.0315C42.0179 65.2313 41.7039 65.2413 41.5041 65.0538L38.5414 62.2737C38.3416 62.0862 38.3316 61.7722 38.5191 61.5724Z" fill="#314158"/>
<path fill-rule="evenodd" clip-rule="evenodd" d="M42.0938 61.457C42.2936 61.6445 42.3036 61.9585 42.1161 62.1583L39.336 65.121C39.1485 65.3208 38.8345 65.3308 38.6347 65.1433C38.4349 64.9558 38.4249 64.6418 38.6124 64.442L41.3924 61.4793C41.5799 61.2795 41.8939 61.2695 42.0938 61.457Z" fill="#314158"/>
<path fill-rule="evenodd" clip-rule="evenodd" d="M2.46334 85.3907C2.65078 85.1908 2.96477 85.1807 3.16465 85.3681L6.12927 88.1482C6.32916 88.3356 6.33924 88.6496 6.1518 88.8495C5.96436 89.0494 5.65038 89.0595 5.45049 88.872L2.48587 86.092C2.28599 85.9045 2.2759 85.5905 2.46334 85.3907Z" fill="#314158"/>
<path fill-rule="evenodd" clip-rule="evenodd" d="M6.037 85.275C6.23689 85.4624 6.24698 85.7764 6.05955 85.9763L3.28143 88.939C3.09399 89.1389 2.78 89.1489 2.58012 88.9615C2.38023 88.7741 2.37014 88.4601 2.55757 88.2602L5.33569 85.2975C5.52313 85.0976 5.83711 85.0875 6.037 85.275Z" fill="#314158"/>
<path fill-rule="evenodd" clip-rule="evenodd" d="M106.55 18.8682C106.737 18.6684 107.051 18.6584 107.251 18.8459L110.214 21.626C110.414 21.8135 110.424 22.1275 110.236 22.3273C110.049 22.5271 109.735 22.5371 109.535 22.3496L106.572 19.5695C106.372 19.382 106.362 19.068 106.55 18.8682Z" fill="#314158"/>
<path fill-rule="evenodd" clip-rule="evenodd" d="M110.122 18.7535C110.322 18.9409 110.332 19.2549 110.145 19.4548L107.366 22.4175C107.179 22.6174 106.865 22.6275 106.665 22.44C106.465 22.2526 106.455 21.9386 106.643 21.7387L109.421 18.776C109.608 18.5762 109.922 18.5661 110.122 18.7535Z" fill="#314158"/>
<path fill-rule="evenodd" clip-rule="evenodd" d="M71.5927 33.9855C71.7802 33.7856 72.0941 33.7755 72.294 33.963L75.2567 36.7411C75.4566 36.9285 75.4667 37.2425 75.2793 37.4424C75.0918 37.6423 74.7778 37.6524 74.578 37.4649L71.6153 34.6868C71.4154 34.4994 71.4053 34.1854 71.5927 33.9855Z" fill="#314158"/>
<path fill-rule="evenodd" clip-rule="evenodd" d="M75.167 33.8701C75.3668 34.0576 75.3768 34.3716 75.1893 34.5714L72.4092 37.5341C72.2217 37.7339 71.9077 37.7439 71.7079 37.5564C71.5081 37.3689 71.4981 37.0549 71.6856 36.855L74.4657 33.8924C74.6532 33.6925 74.9672 33.6826 75.167 33.8701Z" fill="#314158"/>
<path fill-rule="evenodd" clip-rule="evenodd" d="M86.0385 66.9755C86.226 66.7756 86.54 66.7655 86.7398 66.953L89.7025 69.7311C89.9024 69.9185 89.9125 70.2325 89.7251 70.4324C89.5376 70.6323 89.2236 70.6424 89.0238 70.4549L86.0611 67.6768C85.8612 67.4894 85.8511 67.1754 86.0385 66.9755Z" fill="#314158"/>
<path fill-rule="evenodd" clip-rule="evenodd" d="M89.6128 66.8598C89.8126 67.0473 89.8226 67.3613 89.6351 67.5611L86.855 70.5238C86.6675 70.7236 86.3535 70.7336 86.1537 70.5461C85.9539 70.3586 85.9439 70.0446 86.1314 69.8448L88.9115 66.8821C89.099 66.6823 89.413 66.6723 89.6128 66.8598Z" fill="#314158"/>
<path fill-rule="evenodd" clip-rule="evenodd" d="M83.7377 93.8493C83.9252 93.6494 84.2392 93.6393 84.4391 93.8267L87.4017 96.6049C87.6016 96.7923 87.6117 97.1063 87.4243 97.3062C87.2368 97.5061 86.9229 97.5161 86.723 97.3287L83.7603 94.5506C83.5604 94.3632 83.5503 94.0492 83.7377 93.8493Z" fill="#314158"/>
<path fill-rule="evenodd" clip-rule="evenodd" d="M87.31 93.7335C87.5098 93.9209 87.5199 94.2349 87.3325 94.4348L84.5544 97.3975C84.3669 97.5974 84.053 97.6074 83.8531 97.42C83.6532 97.2326 83.6431 96.9186 83.8305 96.7187L86.6086 93.756C86.7961 93.5561 87.1101 93.546 87.31 93.7335Z" fill="#314158"/>
<path fill-rule="evenodd" clip-rule="evenodd" d="M58.4189 22.4814C58.5962 22.4813 58.7601 22.5758 58.8488 22.7294L60.8886 26.2591L60.8887 26.2593L62.9285 29.7852C63.0172 29.9386 63.0174 30.1278 62.9288 30.2814C62.8403 30.435 62.6765 30.5297 62.4992 30.5298L58.4255 30.5317L58.4253 30.5317L54.3497 30.5356C54.1724 30.5358 54.0084 30.4413 53.9197 30.2878C53.8309 30.1344 53.8308 29.9452 53.9194 29.7916L57.9893 22.73C58.0778 22.5763 58.2415 22.4816 58.4189 22.4814ZM58.42 23.9705L55.2086 29.5425L61.639 29.5379L58.42 23.9705Z" fill="#314158"/>
<path fill-rule="evenodd" clip-rule="evenodd" d="M51.6737 65.6121C51.851 65.6119 52.0149 65.7064 52.1036 65.8599L56.1834 72.9159C56.2721 73.0694 56.2722 73.2585 56.1837 73.4121C56.0951 73.5657 55.9314 73.6603 55.7541 73.6604L47.6043 73.6643C47.427 73.6644 47.2632 73.5699 47.1745 73.4164C47.0858 73.2629 47.0857 73.0738 47.1743 72.9202L51.2442 65.8605C51.3327 65.7069 51.4965 65.6122 51.6737 65.6121ZM51.6748 67.1007L50.0699 69.8861L48.4632 72.6716L54.8941 72.6685L51.6748 67.1007Z" fill="#314158"/>
<path fill-rule="evenodd" clip-rule="evenodd" d="M75.1195 78.8889C75.2968 78.8888 75.4607 78.9833 75.5494 79.1367L79.6292 86.1928C79.7179 86.3462 79.718 86.5354 79.6295 86.6889C79.5409 86.8425 79.3772 86.9372 79.1999 86.9373L71.0501 86.9411C70.8728 86.9412 70.709 86.8467 70.6203 86.6933C70.5316 86.5398 70.5315 86.3507 70.6201 86.1971L74.69 79.1374C74.7785 78.9838 74.9423 78.889 75.1195 78.8889ZM75.1206 80.3776L73.5157 83.1629L71.909 85.9484L78.3399 85.9454L75.1206 80.3776Z" fill="#314158"/>
<path fill-rule="evenodd" clip-rule="evenodd" d="M91.9437 51.5034C92.0692 51.6286 92.1183 51.8112 92.0726 51.9825L89.9686 59.8586C89.9228 60.0299 89.7891 60.1637 89.6179 60.2096C89.4467 60.2556 89.264 60.2067 89.1386 60.0814L83.3726 54.3213C83.2472 54.196 83.1981 54.0133 83.2439 53.8421C83.2897 53.6708 83.4233 53.537 83.5946 53.491L91.4643 51.3755C91.6355 51.3294 91.8182 51.3781 91.9437 51.5034ZM90.8922 52.557L84.682 54.2265L89.232 58.7719L90.8922 52.557Z" fill="#314158"/>
<path fill-rule="evenodd" clip-rule="evenodd" d="M24.935 5.79265C25.0605 5.91793 25.1096 6.10063 25.0638 6.27192L22.9599 14.1476C22.9141 14.3189 22.7805 14.4528 22.6092 14.4988C22.438 14.5448 22.2552 14.4959 22.1298 14.3706L16.362 8.61059C16.2365 8.48534 16.1874 8.30265 16.2331 8.13135C16.2789 7.96005 16.4126 7.82619 16.5838 7.78021L24.4556 5.66463C24.6268 5.61857 24.8096 5.66738 24.935 5.79265ZM23.883 6.84623L17.6716 8.5156L19.9482 10.7876L22.2229 13.0608L23.883 6.84623Z" fill="#314158"/>
<path fill-rule="evenodd" clip-rule="evenodd" d="M22.1434 90.867C22.2689 90.9922 22.3181 91.1749 22.2723 91.3462L21.2213 95.2841L21.2213 95.2843L20.1683 99.2223C20.1225 99.3935 19.9888 99.5273 19.8176 99.5733C19.6464 99.6192 19.4637 99.5704 19.3383 99.445L13.5723 93.6849C13.4469 93.5597 13.3978 93.377 13.4436 93.2057C13.4894 93.0345 13.6231 92.9006 13.7943 92.8547L21.664 90.7391C21.8352 90.693 22.018 90.7418 22.1434 90.867ZM21.092 91.9207L14.8817 93.5902L19.4317 98.1355L21.092 91.9207Z" fill="#314158"/>
<path fill-rule="evenodd" clip-rule="evenodd" d="M90.8884 7.94058C91.0418 7.85181 91.231 7.85167 91.3846 7.94021L94.9164 9.97616L98.4464 12.0102C98.6 12.0987 98.6947 12.2625 98.6948 12.4397C98.6949 12.617 98.6005 12.7809 98.447 12.8696L91.391 16.9494C91.2375 17.0381 91.0483 17.0382 90.8948 16.9497C90.7412 16.8611 90.6465 16.6974 90.6465 16.5201L90.6406 8.37053C90.6405 8.19325 90.7349 8.02934 90.8884 7.94058ZM91.6338 9.22924L91.6384 15.6601L97.2062 12.4408L91.6338 9.22924Z" fill="#314158"/>
<path fill-rule="evenodd" clip-rule="evenodd" d="M16.87 48.6506C17.0234 48.5619 17.2126 48.5618 17.3661 48.6503L24.4259 52.7203C24.5795 52.8088 24.6742 52.9725 24.6743 53.1498C24.6744 53.3271 24.58 53.491 24.4265 53.5797L17.3705 57.6595C17.217 57.7482 17.0278 57.7483 16.8743 57.6598C16.7207 57.5712 16.626 57.4075 16.626 57.2302L16.6221 49.0804C16.622 48.9031 16.7165 48.7393 16.87 48.6506ZM17.6148 49.9393L17.6179 56.3702L23.1856 53.1509L17.6148 49.9393Z" fill="#314158"/>
<path fill-rule="evenodd" clip-rule="evenodd" d="M64.2555 45.9241C62.8236 45.9241 61.6608 47.0854 61.6608 48.5188C61.6608 49.9525 62.8219 51.1136 64.2555 51.1136C65.6874 51.1136 66.8503 49.9523 66.8503 48.5188C66.8503 47.0854 65.6874 45.9241 64.2555 45.9241ZM60.6685 48.5188C60.6685 46.5369 62.276 44.9318 64.2555 44.9318C66.2351 44.9318 67.8426 46.5369 67.8426 48.5188C67.8426 50.5007 66.2351 52.1059 64.2555 52.1059C62.2738 52.1059 60.6685 50.5005 60.6685 48.5188Z" fill="#314158"/>
<path fill-rule="evenodd" clip-rule="evenodd" d="M51.2301 14.0196C51.2301 12.5856 50.0669 11.4232 48.636 11.4248L48.6354 11.4248C47.2035 11.4248 46.0407 12.5861 46.0407 14.0196C46.0407 15.4532 47.2017 16.6143 48.6354 16.6143C50.0673 16.6143 51.2301 15.453 51.2301 14.0196ZM48.6351 10.4325C50.6155 10.4304 52.2225 12.0383 52.2225 14.0196C52.2225 16.0014 50.6149 17.6066 48.6354 17.6066C46.6537 17.6066 45.0483 16.0012 45.0483 14.0196C45.0483 12.0378 46.6557 10.4326 48.6351 10.4325Z" fill="#314158"/>
<path fill-rule="evenodd" clip-rule="evenodd" d="M53.2023 105.26C53.2023 103.826 52.0408 102.664 50.6081 102.666L50.6076 102.666C49.1757 102.666 48.0128 103.827 48.0128 105.26C48.0128 106.692 49.1741 107.855 50.6076 107.855C52.0395 107.855 53.2023 106.694 53.2023 105.26ZM50.6073 101.673C52.5898 101.671 54.1946 103.279 54.1946 105.26C54.1946 107.242 52.5871 108.847 50.6076 108.847C48.6257 108.847 47.0205 107.24 47.0205 105.26C47.0205 103.279 48.6279 101.673 50.6073 101.673Z" fill="#314158"/>
<path fill-rule="evenodd" clip-rule="evenodd" d="M65.0578 98.0438C63.6259 98.0438 62.463 99.2051 62.463 100.639C62.463 100.913 62.2409 101.135 61.9669 101.135C61.6928 101.135 61.4707 100.913 61.4707 100.639C61.4707 98.6567 63.0782 97.0515 65.0578 97.0515C67.0395 97.0515 68.6448 98.6569 68.6448 100.639C68.6448 100.913 68.4227 101.135 68.1487 101.135C67.8746 101.135 67.6525 100.913 67.6525 100.639C67.6525 99.2049 66.4914 98.0438 65.0578 98.0438Z" fill="#314158"/>
<path fill-rule="evenodd" clip-rule="evenodd" d="M40.383 50.5613C38.951 50.5613 37.7882 51.7226 37.7882 53.156C37.7882 53.43 37.5661 53.6522 37.2921 53.6522C37.018 53.6522 36.7959 53.43 36.7959 53.156C36.7959 51.1741 38.4034 49.569 40.383 49.569C42.3625 49.569 43.97 51.1741 43.97 53.156C43.97 53.43 43.7479 53.6522 43.4739 53.6522C43.1998 53.6522 42.9777 53.43 42.9777 53.156C42.9777 51.7226 41.8149 50.5613 40.383 50.5613Z" fill="#314158"/>
<path fill-rule="evenodd" clip-rule="evenodd" d="M7.84348 25.4591C6.41963 25.4591 5.26233 26.6182 5.26233 28.0539C5.26233 28.3279 5.0402 28.55 4.76618 28.55C4.49216 28.55 4.27002 28.3279 4.27002 28.0539C4.27002 26.0742 5.86753 24.4668 7.84348 24.4668C9.81943 24.4668 11.4169 26.0742 11.4169 28.0539C11.4169 28.3279 11.1948 28.55 10.9208 28.55C10.6468 28.55 10.4246 28.3279 10.4246 28.0539C10.4246 26.6182 9.26732 25.4591 7.84348 25.4591Z" fill="#314158"/>
<path fill-rule="evenodd" clip-rule="evenodd" d="M82.694 27.4584C81.26 27.4584 80.0992 28.6159 80.0992 30.0395C80.0992 31.4634 81.2583 32.6207 82.694 32.6207C82.968 32.6207 83.1901 32.8428 83.1901 33.1168C83.1901 33.3908 82.968 33.613 82.694 33.613C80.7143 33.613 79.1069 32.0155 79.1069 30.0395C79.1069 28.0634 80.7165 26.4661 82.694 26.4661C82.968 26.4661 83.1901 26.6882 83.1901 26.9622C83.1901 27.2362 82.968 27.4584 82.694 27.4584Z" fill="#314158"/>
<path fill-rule="evenodd" clip-rule="evenodd" d="M8.2521 99.5863C6.81641 99.5863 5.65735 100.744 5.65735 102.167C5.65735 103.591 6.81641 104.749 8.2521 104.749C8.52612 104.749 8.74825 104.971 8.74825 105.245C8.74825 105.519 8.52612 105.741 8.2521 105.741C6.27245 105.741 4.66504 104.143 4.66504 102.167C4.66504 100.192 6.27244 98.594 8.2521 98.594C8.52612 98.594 8.74825 98.8161 8.74825 99.0902C8.74825 99.3642 8.52612 99.5863 8.2521 99.5863Z" fill="#314158"/>
<path fill-rule="evenodd" clip-rule="evenodd" d="M41.4259 1.26624C39.9902 1.26624 38.8312 2.42354 38.8312 3.84738C38.8312 5.27123 39.9902 6.42853 41.4259 6.42853C41.6999 6.42853 41.9221 6.65066 41.9221 6.92468C41.9221 7.1987 41.6999 7.42084 41.4259 7.42084C39.4463 7.42084 37.8389 5.82334 37.8389 3.84738C37.8389 1.87143 39.4463 0.273926 41.4259 0.273926C41.6999 0.273926 41.9221 0.496063 41.9221 0.770083C41.9221 1.0441 41.6999 1.26624 41.4259 1.26624Z" fill="#314158"/>
<path fill-rule="evenodd" clip-rule="evenodd" d="M6.70669 70.1345C5.27478 70.1345 4.11194 71.2958 4.11194 72.7293C4.11194 74.161 5.27498 75.324 6.70669 75.324C8.13859 75.324 9.30143 74.1627 9.30143 72.7293C9.30143 71.2958 8.13859 70.1345 6.70669 70.1345ZM3.11963 72.7293C3.11963 70.7474 4.72714 69.1422 6.70669 69.1422C8.68623 69.1422 10.2937 70.7474 10.2937 72.7293C10.2937 74.7112 8.68623 76.3163 6.70669 76.3163C4.72694 76.3163 3.11963 74.709 3.11963 72.7293Z" fill="#314158"/>
<path fill-rule="evenodd" clip-rule="evenodd" d="M104.636 76.2611C104.636 74.827 103.474 73.6648 102.042 73.6664L102.041 73.6664C100.609 73.6664 99.4464 74.8277 99.4464 76.2611C99.4464 77.693 100.608 78.8559 102.041 78.8559C103.473 78.8559 104.636 77.6946 104.636 76.2611ZM102.041 72.6741C104.023 72.672 105.628 74.2801 105.628 76.2611C105.628 78.243 104.021 79.8482 102.041 79.8482C100.059 79.8482 98.4541 78.2407 98.4541 76.2611C98.4541 74.2793 100.061 72.6742 102.041 72.6741Z" fill="#314158"/>
<path fill-rule="evenodd" clip-rule="evenodd" d="M96.084 26.9641C96.084 26.69 96.3061 26.4679 96.5801 26.4679H102.729C103.003 26.4679 103.225 26.69 103.225 26.9641V33.1128C103.225 33.3868 103.003 33.609 102.729 33.609H96.5801C96.3061 33.609 96.084 33.3868 96.084 33.1128V26.9641ZM97.0763 27.4602V32.6167H102.233V27.4602H97.0763Z" fill="#314158"/>
<path fill-rule="evenodd" clip-rule="evenodd" d="M26.5562 30.0394C26.5562 29.7654 26.7783 29.5432 27.0523 29.5432H33.2011C33.4751 29.5432 33.6972 29.7654 33.6972 30.0394V36.1881C33.6972 36.4622 33.4751 36.6843 33.2011 36.6843H27.0523C26.7783 36.6843 26.5562 36.4622 26.5562 36.1881V30.0394ZM27.5485 30.5355V35.692H32.7049V30.5355H27.5485Z" fill="#314158"/>
<path fill-rule="evenodd" clip-rule="evenodd" d="M26.2466 69.3004C26.2466 69.0263 26.4687 68.8042 26.7427 68.8042H32.8915C33.1655 68.8042 33.3877 69.0263 33.3877 69.3004V75.4491C33.3877 75.7231 33.1655 75.9453 32.8915 75.9453H26.7427C26.4687 75.9453 26.2466 75.7231 26.2466 75.4491V69.3004ZM27.2389 69.7965V74.953H32.3954V69.7965H27.2389Z" fill="#314158"/>
<path fill-rule="evenodd" clip-rule="evenodd" d="M96.084 99.0941C96.084 98.82 96.3061 98.5979 96.5801 98.5979H102.729C103.003 98.5979 103.225 98.82 103.225 99.0941V105.243C103.225 105.517 103.003 105.739 102.729 105.739H96.5801C96.3061 105.739 96.084 105.517 96.084 105.243V99.0941ZM97.0763 99.5902V104.747H102.233V99.5902H97.0763Z" fill="#314158"/>
<path fill-rule="evenodd" clip-rule="evenodd" d="M70.5737 0.772036C70.5737 0.498016 70.7959 0.275879 71.0699 0.275879H77.2187C77.4927 0.275879 77.7148 0.498016 77.7148 0.772036V6.92081C77.7148 7.19483 77.4927 7.41697 77.2187 7.41697H71.0699C70.7959 7.41697 70.5737 7.19483 70.5737 6.92081V0.772036ZM71.566 1.26819V6.42465H76.7225V1.26819H71.566Z" fill="#314158"/>
<path fill-rule="evenodd" clip-rule="evenodd" d="M58.9136 60.9212C58.9136 60.6472 59.1357 60.425 59.4097 60.425C59.9714 60.425 60.3968 60.6268 60.7228 60.9295C61.029 61.2139 61.2359 61.5783 61.3969 61.8737C61.4174 61.9114 61.4372 61.9478 61.4562 61.983C61.602 62.2519 61.7105 62.4522 61.8422 62.6038C61.9674 62.7478 62.0773 62.8049 62.2345 62.8049C62.5085 62.8049 62.7306 63.027 62.7306 63.3011C62.7306 63.5751 62.5085 63.7972 62.2345 63.7972C61.7204 63.7972 61.3558 63.5569 61.0932 63.2547C60.8838 63.0137 60.7184 62.7063 60.5816 62.4521C60.5623 62.4164 60.5437 62.3818 60.5256 62.3485C60.3624 62.049 60.2219 61.8185 60.0476 61.6566C59.893 61.5131 59.7048 61.4174 59.4097 61.4174C59.1357 61.4174 58.9136 61.1952 58.9136 60.9212Z" fill="#314158"/>
<path fill-rule="evenodd" clip-rule="evenodd" d="M64.561 60.9212C64.561 60.6472 64.7832 60.425 65.0572 60.425C65.6188 60.425 66.0443 60.6268 66.3703 60.9295C66.6765 61.2139 66.8834 61.5783 67.0444 61.8737C67.0649 61.9114 67.0846 61.9478 67.1037 61.983C67.2494 62.2519 67.358 62.4522 67.4897 62.6038C67.6148 62.7478 67.7248 62.8049 67.8819 62.8049C68.156 62.8049 68.3781 63.027 68.3781 63.3011C68.3781 63.5751 68.156 63.7972 67.8819 63.7972C67.3679 63.7972 67.0033 63.5569 66.7407 63.2547C66.5313 63.0137 66.3658 62.7063 66.229 62.4521C66.2098 62.4164 66.1912 62.3818 66.173 62.3485C66.0098 62.049 65.8693 61.8185 65.695 61.6566C65.5405 61.5131 65.3523 61.4174 65.0572 61.4174C64.7832 61.4174 64.561 61.1952 64.561 60.9212Z" fill="#314158"/>
<path fill-rule="evenodd" clip-rule="evenodd" d="M63.3762 63.2547C63.1136 63.5569 62.749 63.7972 62.2349 63.7972C61.9609 63.7972 61.7388 63.5751 61.7388 63.3011C61.7388 63.027 61.9609 62.8049 62.2349 62.8049C62.3921 62.8049 62.502 62.7478 62.6272 62.6038C62.7589 62.4522 62.8674 62.2519 63.0132 61.983C63.0323 61.9478 63.052 61.9114 63.0725 61.8737C63.2335 61.5783 63.4404 61.2139 63.7466 60.9295C64.0726 60.6268 64.498 60.425 65.0597 60.425C65.3337 60.425 65.5558 60.6472 65.5558 60.9212C65.5558 61.1952 65.3337 61.4174 65.0597 61.4174C64.7646 61.4174 64.5764 61.5131 64.4218 61.6566C64.2475 61.8185 64.107 62.049 63.9438 62.3485C63.9257 62.3818 63.9071 62.4164 63.8878 62.4521C63.751 62.7063 63.5856 63.0137 63.3762 63.2547Z" fill="#314158"/>
<path fill-rule="evenodd" clip-rule="evenodd" d="M69.0236 63.2547C68.761 63.5569 68.3964 63.7972 67.8824 63.7972C67.6084 63.7972 67.3862 63.5751 67.3862 63.3011C67.3862 63.027 67.6084 62.8049 67.8824 62.8049C68.0396 62.8049 68.1495 62.7478 68.2746 62.6038C68.4063 62.4522 68.5149 62.2519 68.6606 61.983C68.6797 61.9478 68.6994 61.9114 68.7199 61.8737C68.8809 61.5783 69.0878 61.2139 69.394 60.9295C69.72 60.6268 70.1455 60.425 70.7071 60.425C70.9812 60.425 71.2033 60.6472 71.2033 60.9212C71.2033 61.1952 70.9812 61.4174 70.7071 61.4174C70.412 61.4174 70.2238 61.5131 70.0693 61.6566C69.895 61.8185 69.7545 62.049 69.5913 62.3485C69.5732 62.3818 69.5545 62.4164 69.5353 62.4521C69.3985 62.7063 69.233 63.0137 69.0236 63.2547Z" fill="#314158"/>
<path fill-rule="evenodd" clip-rule="evenodd" d="M75.0034 105.258C75.0034 104.984 75.2256 104.762 75.4996 104.762C76.0613 104.762 76.4869 104.964 76.8128 105.267C77.119 105.552 77.3259 105.916 77.4869 106.212C77.5074 106.25 77.5271 106.286 77.5462 106.321C77.6919 106.59 77.8005 106.791 77.9322 106.943C78.0574 107.087 78.1673 107.144 78.3243 107.144C78.5983 107.144 78.8205 107.366 78.8205 107.64C78.8205 107.914 78.5983 108.136 78.3243 108.136C77.8101 108.136 77.4455 107.896 77.1829 107.593C76.9736 107.352 76.8081 107.045 76.6713 106.79C76.6521 106.754 76.6335 106.72 76.6153 106.687C76.4521 106.387 76.3116 106.156 76.1373 105.994C75.9827 105.85 75.7946 105.755 75.4996 105.755C75.2256 105.755 75.0034 105.532 75.0034 105.258Z" fill="#314158"/>
<path fill-rule="evenodd" clip-rule="evenodd" d="M80.6504 105.26C80.6504 104.986 80.8725 104.764 81.1465 104.764C81.7082 104.764 82.1337 104.966 82.4596 105.269C82.7659 105.553 82.9727 105.917 83.1337 106.213C83.1542 106.251 83.174 106.287 83.1931 106.322C83.3388 106.591 83.4473 106.791 83.5791 106.943C83.7042 107.087 83.8141 107.144 83.9713 107.144C84.2453 107.144 84.4675 107.366 84.4675 107.64C84.4675 107.914 84.2453 108.136 83.9713 108.136C83.4573 108.136 83.0927 107.896 82.83 107.594C82.6206 107.353 82.4552 107.046 82.3184 106.791C82.2992 106.756 82.2805 106.721 82.2624 106.688C82.0992 106.388 81.9587 106.158 81.7844 105.996C81.6299 105.852 81.4417 105.757 81.1465 105.757C80.8725 105.757 80.6504 105.534 80.6504 105.26Z" fill="#314158"/>
<path fill-rule="evenodd" clip-rule="evenodd" d="M79.4655 107.594C79.2029 107.896 78.8383 108.136 78.3243 108.136C78.0503 108.136 77.8281 107.914 77.8281 107.64C77.8281 107.366 78.0503 107.144 78.3243 107.144C78.4815 107.144 78.5914 107.087 78.7165 106.943C78.8482 106.791 78.9568 106.591 79.1025 106.322C79.1216 106.287 79.1413 106.251 79.1618 106.213C79.3228 105.917 79.5297 105.553 79.8359 105.269C80.1619 104.966 80.5874 104.764 81.149 104.764C81.423 104.764 81.6452 104.986 81.6452 105.26C81.6452 105.534 81.423 105.757 81.149 105.757C80.8539 105.757 80.6657 105.852 80.5112 105.996C80.3369 106.158 80.1964 106.388 80.0332 106.688C80.0151 106.721 79.9964 106.756 79.9772 106.791C79.8404 107.046 79.6749 107.353 79.4655 107.594Z" fill="#314158"/>
<path fill-rule="evenodd" clip-rule="evenodd" d="M85.1131 107.593C84.8506 107.896 84.4859 108.136 83.9717 108.136C83.6977 108.136 83.4756 107.914 83.4756 107.64C83.4756 107.366 83.6977 107.144 83.9717 107.144C84.1288 107.144 84.2387 107.087 84.3639 106.943C84.4956 106.791 84.6041 106.591 84.7497 106.322C84.7689 106.287 84.7887 106.25 84.8092 106.212C84.9702 105.917 85.1772 105.552 85.4835 105.268C85.8096 104.965 86.2353 104.764 86.797 104.764C87.0711 104.765 87.293 104.987 87.2926 105.261C87.2923 105.535 87.0699 105.757 86.7959 105.757C86.5009 105.756 86.3129 105.852 86.1586 105.995C85.9844 106.157 85.8439 106.387 85.6807 106.687C85.6625 106.72 85.6438 106.755 85.6246 106.791C85.4878 107.045 85.3224 107.352 85.1131 107.593Z" fill="#314158"/>
<path fill-rule="evenodd" clip-rule="evenodd" d="M82.7051 41.3364C82.7051 41.0623 82.9272 40.8402 83.2012 40.8402C83.7629 40.8402 84.1883 41.0419 84.5143 41.3446C84.8206 41.629 85.0274 41.9934 85.1884 42.2889C85.2089 42.3265 85.2287 42.3629 85.2477 42.3981C85.3935 42.667 85.502 42.8674 85.6337 43.0189C85.7589 43.1629 85.8688 43.2201 86.026 43.2201C86.3 43.2201 86.5221 43.4422 86.5221 43.7162C86.5221 43.9902 86.3 44.2124 86.026 44.2124C85.5119 44.2124 85.1473 43.972 84.8847 43.6698C84.6753 43.4289 84.5099 43.1215 84.3731 42.8673C84.3538 42.8316 84.3352 42.797 84.3171 42.7637C84.1539 42.4642 84.0134 42.2336 83.8391 42.0718C83.6845 41.9283 83.4963 41.8325 83.2012 41.8325C82.9272 41.8325 82.7051 41.6104 82.7051 41.3364Z" fill="#314158"/>
<path fill-rule="evenodd" clip-rule="evenodd" d="M88.353 41.3364C88.353 41.0623 88.5752 40.8402 88.8492 40.8402C89.4108 40.8402 89.8363 41.0419 90.1623 41.3446C90.4685 41.629 90.6754 41.9934 90.8364 42.2889C90.8569 42.3265 90.8766 42.3629 90.8957 42.3981C91.0414 42.667 91.15 42.8674 91.2817 43.0189C91.4068 43.1629 91.5168 43.2201 91.6739 43.2201C91.948 43.2201 92.1701 43.4422 92.1701 43.7162C92.1701 43.9902 91.948 44.2124 91.6739 44.2124C91.1599 44.2124 90.7953 43.972 90.5327 43.6698C90.3233 43.4289 90.1578 43.1215 90.021 42.8673C90.0018 42.8316 89.9832 42.797 89.965 42.7637C89.8018 42.4642 89.6613 42.2336 89.487 42.0718C89.3325 41.9283 89.1443 41.8325 88.8492 41.8325C88.5752 41.8325 88.353 41.6104 88.353 41.3364Z" fill="#314158"/>
<path fill-rule="evenodd" clip-rule="evenodd" d="M87.1672 43.6698C86.9046 43.972 86.54 44.2124 86.0259 44.2124C85.7519 44.2124 85.5298 43.9902 85.5298 43.7162C85.5298 43.4422 85.7519 43.2201 86.0259 43.2201C86.1831 43.2201 86.293 43.1629 86.4182 43.0189C86.5499 42.8674 86.6584 42.667 86.8042 42.3981C86.8233 42.3629 86.843 42.3265 86.8635 42.2889C87.0245 41.9934 87.2314 41.629 87.5376 41.3446C87.8636 41.0419 88.2891 40.8402 88.8507 40.8402C89.1247 40.8402 89.3468 41.0623 89.3468 41.3364C89.3468 41.6104 89.1247 41.8325 88.8507 41.8325C88.5556 41.8325 88.3674 41.9283 88.2128 42.0718C88.0385 42.2336 87.898 42.4642 87.7348 42.7637C87.7167 42.797 87.6981 42.8316 87.6789 42.8673C87.5421 43.1215 87.3766 43.4289 87.1672 43.6698Z" fill="#314158"/>
<path fill-rule="evenodd" clip-rule="evenodd" d="M92.8151 43.6698C92.5525 43.972 92.1879 44.2124 91.6739 44.2124C91.3999 44.2124 91.1777 43.9902 91.1777 43.7162C91.1777 43.4422 91.3999 43.2201 91.6739 43.2201C91.8311 43.2201 91.941 43.1629 92.0661 43.0189C92.1978 42.8674 92.3064 42.667 92.4521 42.3981C92.4712 42.3629 92.4909 42.3265 92.5114 42.2889C92.6724 41.9934 92.8793 41.629 93.1855 41.3446C93.5115 41.0419 93.937 40.8402 94.4986 40.8402C94.7727 40.8402 94.9948 41.0623 94.9948 41.3364C94.9948 41.6104 94.7727 41.8325 94.4986 41.8325C94.2035 41.8325 94.0153 41.9283 93.8608 42.0718C93.6865 42.2336 93.546 42.4642 93.3828 42.7637C93.3647 42.797 93.346 42.8316 93.3268 42.8673C93.19 43.1215 93.0245 43.4289 92.8151 43.6698Z" fill="#314158"/>
<path fill-rule="evenodd" clip-rule="evenodd" d="M4.16357 38.4593C4.16357 38.1853 4.38571 37.9631 4.65973 37.9631C5.22137 37.9631 5.64684 38.1649 5.97282 38.4676C6.27905 38.7519 6.48593 39.1164 6.64693 39.4118C6.66743 39.4494 6.68715 39.4858 6.70624 39.5211C6.85197 39.79 6.96053 39.9903 7.09224 40.1419C7.21738 40.2859 7.3273 40.343 7.48448 40.343C7.7585 40.343 7.98063 40.5651 7.98063 40.8391C7.98063 41.1132 7.7585 41.3353 7.48448 41.3353C6.97043 41.3353 6.60584 41.095 6.34322 40.7927C6.13383 40.5518 5.96837 40.2444 5.83155 39.9902C5.81234 39.9545 5.7937 39.9199 5.77558 39.8866C5.61238 39.5871 5.47188 39.3566 5.29758 39.1947C5.14304 39.0512 4.95484 38.9554 4.65973 38.9554C4.38571 38.9554 4.16357 38.7333 4.16357 38.4593Z" fill="#314158"/>
<path fill-rule="evenodd" clip-rule="evenodd" d="M9.81152 38.4593C9.81152 38.1853 10.0337 37.9631 10.3077 37.9631C10.8693 37.9631 11.2948 38.1649 11.6208 38.4676C11.927 38.7519 12.1339 39.1164 12.2949 39.4118C12.3154 39.4494 12.3351 39.4858 12.3542 39.5211C12.4999 39.79 12.6085 39.9903 12.7402 40.1419C12.8653 40.2859 12.9753 40.343 13.1324 40.343C13.4064 40.343 13.6286 40.5651 13.6286 40.8391C13.6286 41.1132 13.4064 41.3353 13.1324 41.3353C12.6184 41.3353 12.2538 41.095 11.9912 40.7927C11.7818 40.5518 11.6163 40.2444 11.4795 39.9902C11.4603 39.9545 11.4416 39.9199 11.4235 39.8866C11.2603 39.5871 11.1198 39.3566 10.9455 39.1947C10.791 39.0512 10.6028 38.9554 10.3077 38.9554C10.0337 38.9554 9.81152 38.7333 9.81152 38.4593Z" fill="#314158"/>
<path fill-rule="evenodd" clip-rule="evenodd" d="M8.6257 40.7927C8.36307 41.095 7.99848 41.3353 7.48444 41.3353C7.21042 41.3353 6.98828 41.1132 6.98828 40.8391C6.98828 40.5651 7.21042 40.343 7.48444 40.343C7.64161 40.343 7.75154 40.2859 7.87667 40.1419C8.00839 39.9903 8.11694 39.79 8.26267 39.5211C8.28176 39.4858 8.30149 39.4494 8.32199 39.4118C8.48299 39.1164 8.68987 38.7519 8.9961 38.4676C9.32208 38.1649 9.74755 37.9631 10.3092 37.9631C10.5832 37.9631 10.8053 38.1853 10.8053 38.4593C10.8053 38.7333 10.5832 38.9554 10.3092 38.9554C10.0141 38.9554 9.82588 39.0512 9.67134 39.1947C9.49704 39.3566 9.35653 39.5871 9.19334 39.8866C9.17522 39.9199 9.15657 39.9545 9.13736 39.9902C9.00055 40.2444 8.83509 40.5518 8.6257 40.7927Z" fill="#314158"/>
<path fill-rule="evenodd" clip-rule="evenodd" d="M14.2732 40.7927C14.0105 41.095 13.6459 41.3353 13.1319 41.3353C12.8579 41.3353 12.6357 41.1132 12.6357 40.8391C12.6357 40.5651 12.8579 40.343 13.1319 40.343C13.2891 40.343 13.399 40.2859 13.5241 40.1419C13.6558 39.9903 13.7644 39.79 13.9101 39.5211C13.9292 39.4858 13.9489 39.4494 13.9694 39.4118C14.1304 39.1164 14.3373 38.7519 14.6436 38.4676C14.9695 38.1649 15.395 37.9631 15.9566 37.9631C16.2307 37.9631 16.4528 38.1853 16.4528 38.4593C16.4528 38.7333 16.2307 38.9554 15.9566 38.9554C15.6615 38.9554 15.4733 39.0512 15.3188 39.1947C15.1445 39.3566 15.004 39.5871 14.8408 39.8866C14.8227 39.9199 14.804 39.9545 14.7848 39.9902C14.648 40.2444 14.4825 40.5518 14.2732 40.7927Z" fill="#314158"/>
<path fill-rule="evenodd" clip-rule="evenodd" d="M62.7027 8.47241C62.9767 8.47241 63.1988 8.69455 63.1988 8.96857C63.1988 9.48261 62.9585 9.8472 62.6563 10.1098C62.4153 10.3192 62.1079 10.4847 61.8537 10.6215C61.818 10.6407 61.7834 10.6593 61.7501 10.6775C61.4507 10.8407 61.2201 10.9812 61.0582 11.1555C60.9147 11.31 60.819 11.4982 60.819 11.7933C60.819 12.0673 60.5968 12.2895 60.3228 12.2895C60.0488 12.2895 59.8267 12.0673 59.8267 11.7933C59.8267 11.2317 60.0284 10.8062 60.3311 10.4802C60.6155 10.174 60.9799 9.96712 61.2753 9.80612C61.313 9.78562 61.3494 9.76589 61.3846 9.7468C61.6535 9.60107 61.8538 9.49252 62.0054 9.3608C62.1494 9.23567 62.2065 9.12574 62.2065 8.96857C62.2065 8.69455 62.4287 8.47241 62.7027 8.47241Z" fill="#314158"/>
<path fill-rule="evenodd" clip-rule="evenodd" d="M62.7027 2.82471C62.9767 2.82471 63.1988 3.04684 63.1988 3.32086C63.1988 3.83491 62.9585 4.1995 62.6563 4.46212C62.4153 4.67151 62.1079 4.83697 61.8537 4.97379C61.818 4.993 61.7834 5.01164 61.7501 5.02976C61.4507 5.19296 61.2201 5.33346 61.0582 5.50776C60.9147 5.6623 60.819 5.8505 60.819 6.14561C60.819 6.41963 60.5968 6.64177 60.3228 6.64177C60.0488 6.64177 59.8267 6.41963 59.8267 6.14561C59.8267 5.58397 60.0284 5.1585 60.3311 4.83252C60.6155 4.52629 60.9799 4.31941 61.2753 4.15841C61.313 4.13791 61.3494 4.11819 61.3846 4.0991C61.6535 3.95337 61.8538 3.84481 62.0054 3.7131C62.1494 3.58796 62.2065 3.47804 62.2065 3.32086C62.2065 3.04684 62.4287 2.82471 62.7027 2.82471Z" fill="#314158"/>
<path fill-rule="evenodd" clip-rule="evenodd" d="M60.3228 5.64758C60.5968 5.64758 60.819 5.86972 60.819 6.14374C60.819 6.43885 60.9147 6.62705 61.0582 6.78159C61.2201 6.95589 61.4507 7.09639 61.7501 7.25959C61.7834 7.27771 61.818 7.29635 61.8537 7.31556C62.1079 7.45238 62.4153 7.61784 62.6563 7.82723C62.9585 8.08985 63.1988 8.45444 63.1988 8.96849C63.1988 9.24251 62.9767 9.46464 62.7027 9.46464C62.4287 9.46464 62.2065 9.24251 62.2065 8.96849C62.2065 8.81131 62.1494 8.70139 62.0054 8.57625C61.8538 8.44454 61.6535 8.33598 61.3846 8.19025C61.3494 8.17116 61.313 8.15144 61.2753 8.13094C60.9799 7.96994 60.6155 7.76306 60.3311 7.45683C60.0284 7.13085 59.8267 6.70538 59.8267 6.14374C59.8267 5.86972 60.0488 5.64758 60.3228 5.64758Z" fill="#314158"/>
<path fill-rule="evenodd" clip-rule="evenodd" d="M60.3243 0C60.5983 0 60.8204 0.222137 60.8204 0.496158C60.8204 0.79127 60.9162 0.979465 61.0597 1.13401C61.2216 1.3083 61.4521 1.44881 61.7516 1.612C61.7849 1.63012 61.8195 1.64877 61.8552 1.66798C62.1094 1.80479 62.4168 1.97025 62.6577 2.17965C62.96 2.44227 63.2003 2.80686 63.2003 3.3209C63.2003 3.59492 62.9782 3.81706 62.7041 3.81706C62.4301 3.81706 62.208 3.59492 62.208 3.3209C62.208 3.16373 62.1508 3.0538 62.0068 2.92867C61.8553 2.79695 61.655 2.6884 61.3861 2.54267C61.3508 2.52358 61.3144 2.50385 61.2768 2.48336C60.9813 2.32235 60.6169 2.11547 60.3326 1.80925C60.0298 1.48326 59.8281 1.05779 59.8281 0.496158C59.8281 0.222137 60.0503 0 60.3243 0Z" fill="#314158"/>
<path fill-rule="evenodd" clip-rule="evenodd" d="M45.3853 38.0154C45.6593 38.0154 45.8814 38.2375 45.8814 38.5115C45.8814 39.0256 45.6411 39.3902 45.3389 39.6528C45.0979 39.8622 44.7905 40.0276 44.5363 40.1645C44.5007 40.1837 44.466 40.2023 44.4328 40.2204C44.1333 40.3836 43.9027 40.5241 43.7409 40.6984C43.5974 40.853 43.5016 41.0412 43.5016 41.3363C43.5016 41.6103 43.2795 41.8324 43.0054 41.8324C42.7314 41.8324 42.5093 41.6103 42.5093 41.3363C42.5093 40.7746 42.711 40.3492 43.0137 40.0232C43.2981 39.717 43.6625 39.5101 43.958 39.3491C43.9956 39.3286 44.032 39.3089 44.0672 39.2898C44.3361 39.144 44.5364 39.0355 44.688 38.9038C44.832 38.7786 44.8891 38.6687 44.8891 38.5115C44.8891 38.2375 45.1113 38.0154 45.3853 38.0154Z" fill="#314158"/>
<path fill-rule="evenodd" clip-rule="evenodd" d="M45.3853 32.3679C45.6593 32.3679 45.8814 32.5901 45.8814 32.8641C45.8814 33.3781 45.6411 33.7427 45.3389 34.0053C45.0979 34.2147 44.7905 34.3802 44.5363 34.517C44.5007 34.5362 44.466 34.5549 44.4328 34.573C44.1333 34.7362 43.9027 34.8767 43.7409 35.051C43.5974 35.2055 43.5016 35.3937 43.5016 35.6888C43.5016 35.9628 43.2795 36.185 43.0054 36.185C42.7314 36.185 42.5093 35.9628 42.5093 35.6888C42.5093 35.1272 42.711 34.7017 43.0137 34.3757C43.2981 34.0695 43.6625 33.8626 43.958 33.7016C43.9956 33.6811 44.032 33.6614 44.0672 33.6423C44.3361 33.4966 44.5364 33.388 44.688 33.2563C44.832 33.1312 44.8891 33.0213 44.8891 32.8641C44.8891 32.5901 45.1113 32.3679 45.3853 32.3679Z" fill="#314158"/>
<path fill-rule="evenodd" clip-rule="evenodd" d="M43.0054 35.1908C43.2795 35.1908 43.5016 35.4129 43.5016 35.687C43.5016 35.9821 43.5974 36.1703 43.7409 36.3248C43.9027 36.4991 44.1333 36.6396 44.4328 36.8028C44.466 36.8209 44.5007 36.8396 44.5363 36.8588C44.7905 36.9956 45.0979 37.1611 45.3389 37.3704C45.6411 37.6331 45.8814 37.9977 45.8814 38.5117C45.8814 38.7857 45.6593 39.0079 45.3853 39.0079C45.1113 39.0079 44.8891 38.7857 44.8891 38.5117C44.8891 38.3545 44.832 38.2446 44.688 38.1195C44.5364 37.9878 44.3361 37.8792 44.0672 37.7335C44.032 37.7144 43.9956 37.6947 43.958 37.6742C43.6625 37.5132 43.2981 37.3063 43.0137 37C42.711 36.6741 42.5093 36.2486 42.5093 35.687C42.5093 35.4129 42.7314 35.1908 43.0054 35.1908Z" fill="#314158"/>
<path fill-rule="evenodd" clip-rule="evenodd" d="M43.0059 29.5432C43.2799 29.5432 43.5021 29.7654 43.5021 30.0394C43.5021 30.3345 43.5978 30.5227 43.7413 30.6772C43.9032 30.8515 44.1338 30.992 44.4332 31.1552C44.4665 31.1733 44.5011 31.192 44.5368 31.2112C44.791 31.348 45.0984 31.5135 45.3394 31.7229C45.6416 31.9855 45.8819 32.3501 45.8819 32.8641C45.8819 33.1381 45.6598 33.3603 45.3858 33.3603C45.1118 33.3603 44.8896 33.1381 44.8896 32.8641C44.8896 32.7069 44.8325 32.597 44.6885 32.4719C44.5369 32.3402 44.3366 32.2316 44.0677 32.0859C44.0325 32.0668 43.9961 32.0471 43.9585 32.0266C43.663 31.8656 43.2986 31.6587 43.0142 31.3525C42.7115 31.0265 42.5098 30.601 42.5098 30.0394C42.5098 29.7654 42.7319 29.5432 43.0059 29.5432Z" fill="#314158"/>
<path fill-rule="evenodd" clip-rule="evenodd" d="M92.3277 85.2106C92.6017 85.2106 92.8238 85.4327 92.8238 85.7067C92.8238 86.2208 92.5835 86.5854 92.2813 86.848C92.0403 87.0574 91.7329 87.2228 91.4787 87.3597C91.443 87.3789 91.4084 87.3975 91.3751 87.4156C91.0757 87.5788 90.8451 87.7193 90.6832 87.8936C90.5397 88.0482 90.444 88.2364 90.444 88.5315C90.444 88.8055 90.2218 89.0276 89.9478 89.0276C89.6738 89.0276 89.4517 88.8055 89.4517 88.5315C89.4517 87.9698 89.6534 87.5444 89.9561 87.2184C90.2405 86.9122 90.6049 86.7053 90.9003 86.5443C90.938 86.5238 90.9744 86.5041 91.0096 86.485C91.2785 86.3392 91.4788 86.2307 91.6304 86.099C91.7744 85.9738 91.8315 85.8639 91.8315 85.7067C91.8315 85.4327 92.0537 85.2106 92.3277 85.2106Z" fill="#314158"/>
<path fill-rule="evenodd" clip-rule="evenodd" d="M92.3277 79.5629C92.6017 79.5629 92.8238 79.785 92.8238 80.059C92.8238 80.5731 92.5835 80.9377 92.2813 81.2003C92.0403 81.4097 91.7329 81.5751 91.4787 81.7119C91.443 81.7312 91.4084 81.7498 91.3751 81.7679C91.0757 81.9311 90.8451 82.0716 90.6832 82.2459C90.5397 82.4005 90.444 82.5887 90.444 82.8838C90.444 83.1578 90.2218 83.3799 89.9478 83.3799C89.6738 83.3799 89.4517 83.1578 89.4517 82.8838C89.4517 82.3221 89.6534 81.8967 89.9561 81.5707C90.2405 81.2645 90.6049 81.0576 90.9003 80.8966C90.938 80.8761 90.9744 80.8563 91.0096 80.8373C91.2785 80.6915 91.4788 80.583 91.6304 80.4513C91.7744 80.3261 91.8315 80.2162 91.8315 80.059C91.8315 79.785 92.0537 79.5629 92.3277 79.5629Z" fill="#314158"/>
<path fill-rule="evenodd" clip-rule="evenodd" d="M89.9478 82.3857C90.2218 82.3857 90.444 82.6079 90.444 82.8819C90.444 83.177 90.5397 83.3652 90.6832 83.5197C90.8451 83.694 91.0757 83.8346 91.3751 83.9977C91.4084 84.0159 91.443 84.0345 91.4787 84.0537C91.7329 84.1905 92.0403 84.356 92.2813 84.5654C92.5835 84.828 92.8238 85.1926 92.8238 85.7066C92.8238 85.9807 92.6017 86.2028 92.3277 86.2028C92.0537 86.2028 91.8315 85.9807 91.8315 85.7066C91.8315 85.5495 91.7744 85.4395 91.6304 85.3144C91.4788 85.1827 91.2785 85.0741 91.0096 84.9284C90.9744 84.9093 90.938 84.8896 90.9003 84.8691C90.6049 84.7081 90.2405 84.5012 89.9561 84.195C89.6534 83.869 89.4517 83.4435 89.4517 82.8819C89.4517 82.6079 89.6738 82.3857 89.9478 82.3857Z" fill="#314158"/>
<path fill-rule="evenodd" clip-rule="evenodd" d="M89.9483 76.7383C90.2223 76.7383 90.4445 76.9604 90.4445 77.2344C90.4445 77.5296 90.5402 77.7177 90.6837 77.8723C90.8456 78.0466 91.0761 78.1871 91.3756 78.3503C91.4089 78.3684 91.4435 78.387 91.4792 78.4063C91.7334 78.5431 92.0408 78.7085 92.2818 78.9179C92.584 79.1805 92.8243 79.5451 92.8243 80.0592C92.8243 80.3332 92.6022 80.5553 92.3282 80.5553C92.0541 80.5553 91.832 80.3332 91.832 80.0592C91.832 79.902 91.7749 79.7921 91.6309 79.6669C91.4793 79.5352 91.279 79.4267 91.0101 79.2809C90.9749 79.2619 90.9385 79.2421 90.9008 79.2216C90.6054 79.0606 90.241 78.8538 89.9566 78.5475C89.6539 78.2215 89.4521 77.7961 89.4521 77.2344C89.4521 76.9604 89.6743 76.7383 89.9483 76.7383Z" fill="#314158"/>
<path fill-rule="evenodd" clip-rule="evenodd" d="M34.0821 89.6614C34.3561 89.6614 34.5782 89.8835 34.5782 90.1575C34.5782 90.6716 34.3379 91.0362 34.0357 91.2988C33.7947 91.5082 33.4873 91.6736 33.2331 91.8105C33.1974 91.8297 33.1628 91.8483 33.1295 91.8664C32.83 92.0296 32.5995 92.1701 32.4376 92.3444C32.2941 92.499 32.1984 92.6872 32.1984 92.9823C32.1984 93.2563 31.9762 93.4784 31.7022 93.4784C31.4282 93.4784 31.2061 93.2563 31.2061 92.9823C31.2061 92.4206 31.4078 91.9952 31.7105 91.6692C31.9949 91.363 32.3593 91.1561 32.6547 90.9951C32.6924 90.9746 32.7288 90.9549 32.764 90.9358C33.0329 90.79 33.2332 90.6815 33.3848 90.5498C33.5288 90.4246 33.5859 90.3147 33.5859 90.1575C33.5859 89.8835 33.808 89.6614 34.0821 89.6614Z" fill="#314158"/>
<path fill-rule="evenodd" clip-rule="evenodd" d="M34.0821 84.0138C34.3561 84.0138 34.5782 84.2359 34.5782 84.51C34.5782 85.024 34.3379 85.3886 34.0357 85.6512C33.7947 85.8606 33.4873 86.0261 33.2331 86.1629C33.1974 86.1821 33.1628 86.2007 33.1295 86.2189C32.83 86.382 32.5995 86.5226 32.4376 86.6968C32.2941 86.8514 32.1984 87.0396 32.1984 87.3347C32.1984 87.6087 31.9762 87.8309 31.7022 87.8309C31.4282 87.8309 31.2061 87.6087 31.2061 87.3347C31.2061 86.7731 31.4078 86.3476 31.7105 86.0216C31.9949 85.7154 32.3593 85.5085 32.6547 85.3475C32.6924 85.327 32.7288 85.3073 32.764 85.2882C33.0329 85.1425 33.2332 85.0339 33.3848 84.9022C33.5288 84.777 33.5859 84.6671 33.5859 84.51C33.5859 84.2359 33.808 84.0138 34.0821 84.0138Z" fill="#314158"/>
<path fill-rule="evenodd" clip-rule="evenodd" d="M31.7022 86.8367C31.9762 86.8367 32.1984 87.0588 32.1984 87.3328C32.1984 87.6279 32.2941 87.8161 32.4376 87.9707C32.5995 88.145 32.83 88.2855 33.1295 88.4487C33.1628 88.4668 33.1974 88.4854 33.2331 88.5047C33.4873 88.6415 33.7947 88.8069 34.0357 89.0163C34.3379 89.2789 34.5782 89.6435 34.5782 90.1576C34.5782 90.4316 34.3561 90.6537 34.0821 90.6537C33.808 90.6537 33.5859 90.4316 33.5859 90.1576C33.5859 90.0004 33.5288 89.8905 33.3848 89.7653C33.2332 89.6336 33.0329 89.5251 32.764 89.3793C32.7288 89.3603 32.6924 89.3405 32.6547 89.32C32.3593 89.159 31.9949 88.9521 31.7105 88.6459C31.4078 88.3199 31.2061 87.8945 31.2061 87.3328C31.2061 87.0588 31.4282 86.8367 31.7022 86.8367Z" fill="#314158"/>
<path fill-rule="evenodd" clip-rule="evenodd" d="M31.7037 81.1891C31.9777 81.1891 32.1998 81.4112 32.1998 81.6852C32.1998 81.9804 32.2956 82.1686 32.4391 82.3231C32.601 82.4974 32.8315 82.6379 33.131 82.8011C33.1643 82.8192 33.1989 82.8379 33.2346 82.8571C33.4888 82.9939 33.7962 83.1593 34.0371 83.3687C34.3393 83.6314 34.5797 83.9959 34.5797 84.51C34.5797 84.784 34.3576 85.0061 34.0835 85.0061C33.8095 85.0061 33.5874 84.784 33.5874 84.51C33.5874 84.3528 33.5302 84.2429 33.3862 84.1178C33.2347 83.986 33.0344 83.8775 32.7654 83.7318C32.7302 83.7127 32.6938 83.6929 32.6562 83.6724C32.3607 83.5114 31.9963 83.3046 31.712 82.9983C31.4092 82.6723 31.2075 82.2469 31.2075 81.6852C31.2075 81.4112 31.4297 81.1891 31.7037 81.1891Z" fill="#314158"/>
<path fill-rule="evenodd" clip-rule="evenodd" d="M68.5054 69.6384C68.5054 69.3643 68.7275 69.1422 69.0015 69.1422H75.9701C76.2442 69.1422 76.4663 69.3643 76.4663 69.6384C76.4663 69.9124 76.2442 70.1345 75.9701 70.1345H69.0015C68.7275 70.1345 68.5054 69.9124 68.5054 69.6384Z" fill="#314158"/>
<path fill-rule="evenodd" clip-rule="evenodd" d="M0 49.5018C0 49.2278 0.222137 49.0056 0.496158 49.0056H7.46477C7.73879 49.0056 7.96092 49.2278 7.96092 49.5018C7.96092 49.7758 7.73879 49.9979 7.46477 49.9979H0.496158C0.222137 49.9979 0 49.7758 0 49.5018Z" fill="#314158"/>
<path fill-rule="evenodd" clip-rule="evenodd" d="M69.0273 17.1104C69.0273 16.8364 69.2495 16.6143 69.5235 16.6143H76.4921C76.7661 16.6143 76.9883 16.8364 76.9883 17.1104C76.9883 17.3844 76.7661 17.6066 76.4921 17.6066H69.5235C69.2495 17.6066 69.0273 17.3844 69.0273 17.1104Z" fill="#314158"/>
<path fill-rule="evenodd" clip-rule="evenodd" d="M96.4941 1.38397C96.4941 1.10995 96.7163 0.887817 96.9903 0.887817H103.959C104.233 0.887817 104.455 1.10995 104.455 1.38397C104.455 1.658 104.233 1.88013 103.959 1.88013H96.9903C96.7163 1.88013 96.4941 1.658 96.4941 1.38397Z" fill="#314158"/>
<path fill-rule="evenodd" clip-rule="evenodd" d="M27.7808 105.245C27.7808 104.971 28.0029 104.749 28.2769 104.749H35.2455C35.5195 104.749 35.7417 104.971 35.7417 105.245C35.7417 105.519 35.5195 105.741 35.2455 105.741H28.2769C28.0029 105.741 27.7808 105.519 27.7808 105.245Z" fill="#314158"/>
<path fill-rule="evenodd" clip-rule="evenodd" d="M51.448 86.504C51.6418 86.6977 51.6419 87.0119 51.4482 87.2057L46.5214 92.1344C46.3277 92.3282 46.0135 92.3283 45.8197 92.1346C45.6259 91.9408 45.6258 91.6267 45.8196 91.4329L50.7464 86.5042C50.9401 86.3104 51.2542 86.3103 51.448 86.504Z" fill="#314158"/>
<path fill-rule="evenodd" clip-rule="evenodd" d="M10.6596 1.03321C10.8533 1.22701 10.8532 1.54116 10.6594 1.73488L5.73071 6.66167C5.53691 6.85539 5.22276 6.85533 5.02904 6.66153C4.83532 6.46773 4.83538 6.15358 5.02918 5.95986L9.95791 1.03307C10.1517 0.839346 10.4659 0.839408 10.6596 1.03321Z" fill="#314158"/>
<path fill-rule="evenodd" clip-rule="evenodd" d="M105.753 51.5463C105.947 51.7401 105.947 52.0542 105.753 52.248L100.826 57.1748C100.633 57.3685 100.319 57.3685 100.125 57.1748C99.9311 56.981 99.9311 56.6669 100.125 56.4731L105.052 51.5463C105.245 51.3526 105.56 51.3526 105.753 51.5463Z" fill="#314158"/>
<path fill-rule="evenodd" clip-rule="evenodd" d="M63.9032 84.7213C63.6918 84.3847 63.2466 84.2828 62.909 84.4946C62.5729 84.7067 62.4713 85.1521 62.6836 85.4883L62.6842 85.4893L62.6842 85.4893C62.8956 85.826 63.341 85.9278 63.6787 85.7157C64.0153 85.5044 64.1168 85.0596 63.9038 84.7223L63.9032 84.7213L63.9032 84.7213ZM64.7432 84.193C64.2395 83.3916 63.1815 83.1517 62.3809 83.6545L62.3809 83.6545L62.3803 83.6549C61.5823 84.1578 61.3381 85.2155 61.8442 86.0176C62.3478 86.819 63.4058 87.0588 64.2064 86.5561C65.0081 86.0527 65.2486 84.9941 64.7432 84.193Z" fill="#314158"/>
<path fill-rule="evenodd" clip-rule="evenodd" d="M54.3075 51.2267C54.0962 50.8902 53.651 50.7883 53.3133 51.0001C52.9784 51.2114 52.8764 51.657 53.0886 51.9948C53.2999 52.3313 53.7449 52.4332 54.0825 52.2215C54.4208 52.0076 54.5202 51.5624 54.3086 51.2284L54.3075 51.2267L54.3075 51.2267ZM55.1473 50.6982C54.6436 49.897 53.5858 49.6573 52.7853 50.16L52.7853 50.16L52.7846 50.1604C51.9853 50.6641 51.7455 51.722 52.2482 52.5226C52.7517 53.3244 53.81 53.5645 54.6108 53.0616L54.6108 53.0616L54.6118 53.0609C55.4113 52.5562 55.6538 51.4985 55.1473 50.6982Z" fill="#314158"/>
<path fill-rule="evenodd" clip-rule="evenodd" d="M10.4232 61.5269C10.2119 61.1904 9.76672 61.0885 9.42907 61.3003C9.09414 61.5116 8.99213 61.9572 9.20428 62.295C9.41562 62.6315 9.86081 62.7334 10.1985 62.5216C10.5348 62.3094 10.6358 61.8624 10.4243 61.5286L10.4232 61.5269L10.4232 61.5269ZM11.2631 60.9984C10.7593 60.1972 9.7015 59.9575 8.90102 60.4602L8.90102 60.4602L8.90037 60.4606C8.101 60.9643 7.86122 62.0222 8.36393 62.8227C8.86745 63.6245 9.92574 63.8646 10.7265 63.3618L10.7271 63.3614C11.5248 62.8587 11.7696 61.7989 11.2631 60.9984Z" fill="#314158"/>
<path fill-rule="evenodd" clip-rule="evenodd" d="M22.8993 23.1987C22.688 22.8621 22.2428 22.7603 21.9051 22.9721C21.5702 23.1834 21.4682 23.6289 21.6804 23.9667C21.8918 24.3034 22.3372 24.4052 22.6748 24.1932C23.0115 23.9818 23.1129 23.537 22.9 23.1997L22.8993 23.1987L22.8993 23.1987ZM23.7393 22.6704C23.2357 21.869 22.1777 21.6292 21.3771 22.1319L21.3771 22.1319L21.3764 22.1323C20.5771 22.636 20.3373 23.694 20.84 24.4945C21.3435 25.2963 22.4018 25.5364 23.2026 25.0335C24.0042 24.5301 24.2448 23.4715 23.7393 22.6704Z" fill="#314158"/>
<path fill-rule="evenodd" clip-rule="evenodd" d="M89.8812 22.5945C89.6699 22.258 89.2247 22.1561 88.8871 22.3679C88.5521 22.5792 88.4501 23.0248 88.6623 23.3626C88.8735 23.699 89.3184 23.8009 89.6559 23.5896C89.9937 23.3749 90.0932 22.9291 89.8823 22.5962L89.8812 22.5945L89.8812 22.5945ZM90.7211 22.066C90.2173 21.2648 89.1595 21.0251 88.359 21.5278L88.359 21.5278L88.3584 21.5282C87.559 22.0319 87.3192 23.0898 87.8219 23.8904C88.3255 24.6922 89.3838 24.9322 90.1845 24.4294L90.1845 24.4294L90.1862 24.4283C90.982 23.9241 91.2281 22.8673 90.7211 22.066Z" fill="#314158"/>
<path fill-rule="evenodd" clip-rule="evenodd" d="M107.082 65.9778C106.871 65.6413 106.426 65.5394 106.088 65.7512C105.753 65.9625 105.651 66.4081 105.863 66.7459C106.075 67.0824 106.52 67.1843 106.857 66.9726C107.196 66.7587 107.295 66.3135 107.083 65.9795L107.082 65.9778L107.082 65.9778ZM107.922 65.4493C107.419 64.6481 106.361 64.4084 105.56 64.9111L105.56 64.9111L105.56 64.9115C104.76 65.4152 104.52 66.4731 105.023 67.2737C105.527 68.0755 106.585 68.3156 107.386 67.8127L107.386 67.8127L107.387 67.812C108.186 67.3073 108.429 66.2496 107.922 65.4493Z" fill="#314158"/>
</svg>
