<svg xmlns="http://www.w3.org/2000/svg" viewBox="0 0 141.63 150"><defs><style>.cls-1{fill:#ededed;}</style></defs><g id="Layer_1" data-name="Layer 1"><polygon class="cls-1" points="82.81 66.77 82.81 142.22 102.24 122.81 116.34 150 126.58 144.69 113.01 118.53 139.22 118.53 82.81 66.77"/><path class="cls-1" d="M140.87,80.64c.13-1,.29-2,.4-3a67,67,0,0,0,.36-6.87c0-2.37-.12-4.5-.33-6.69-.11-1.17-.3-2.31-.47-3.45-.12-.81-.19-1.63-.33-2.43h0a70.77,70.77,0,0,0-57-57h0c-1-.23-2-.32-2.89-.45s-2-.31-3-.42C75.33.12,73.09,0,70.83,0s-4.5.12-6.72.33c-1,.1-2,.27-3,.42s-1.89.21-2.8.38h0a70.76,70.76,0,0,0-57,57h0c-.15.85-.23,1.73-.36,2.61S.46,63,.33,64.09C.12,66.3,0,68.59,0,70.8s.12,4.5.33,6.69c.1,1.16.3,2.26.46,3.41.12.82.2,1.66.35,2.49h0a70.77,70.77,0,0,0,57,57h0c.87.15,1.75.25,2.63.36s2.15.33,3.27.44c2.2.21,4.5.33,6.69.33h.2V125h-.1a53.38,53.38,0,0,1-9.27-.86,143.93,143.93,0,0,1-5.73-27.94c4.88.3,9.9.48,15,.48H71V87.25h-.21c-5.66,0-11-.19-15.93-.52-.34-5-.57-10.23-.57-15.93s.2-11,.52-15.95c5-.33,10.29-.52,15.95-.52s11,.2,15.92.52v.86a11.65,11.65,0,0,1,4,2.38l5.81,5.33c-.08-2.61-.23-5.15-.4-7.68a144.82,144.82,0,0,1,28.19,5.76,55.38,55.38,0,0,1,.84,9.27,53.1,53.1,0,0,1-.81,9.25c-2.24.74-4.61,1.5-7.29,2.13l5.55,5.09h0l13.08,12a70.57,70.57,0,0,0,4.77-15.82h0A25,25,0,0,0,140.87,80.64Zm-90-60.27A170.23,170.23,0,0,0,46.28,46.2a171.3,171.3,0,0,0-25.82,4.57,54.57,54.57,0,0,1,30.35-30.4Zm0,100.88A54.56,54.56,0,0,1,20.4,90.82a171.46,171.46,0,0,0,25.81,4.6,172.68,172.68,0,0,0,4.58,25.81ZM45.42,85.86a145.1,145.1,0,0,1-28-5.77,51.23,51.23,0,0,1,0-18.56,144.35,144.35,0,0,1,28.05-5.77c-.3,4.87-.48,9.9-.48,15S45.12,81,45.42,85.86ZM70.83,44.91c-5.15,0-10.17.17-15,.47A145.2,145.2,0,0,1,61.6,17.32a51.12,51.12,0,0,1,18.54,0,144.54,144.54,0,0,1,5.69,28.07C81,45.07,76,44.91,70.83,44.91Zm24.58,1.28a171.21,171.21,0,0,0-4.57-25.83,54.53,54.53,0,0,1,30.42,30.41A171.49,171.49,0,0,0,95.41,46.19Z"/></g></svg>